<svg width="200" height="60" viewBox="0 0 200 60" xmlns="http://www.w3.org/2000/svg">
  <!-- Building Shape -->
  <g>
    <!-- Main building -->
    <rect x="15" y="15" width="35" height="35" fill="#FF6B35" rx="3"/>
    
    <!-- Dome/Top -->
    <path d="M 20 15 Q 32.5 5 45 15" fill="#004E89"/>
    
    <!-- Windows -->
    <rect x="20" y="20" width="6" height="6" fill="#F7B801"/>
    <rect x="28" y="20" width="6" height="6" fill="#F7B801"/>
    <rect x="36" y="20" width="6" height="6" fill="#F7B801"/>
    
    <rect x="20" y="28" width="6" height="6" fill="#F7B801"/>
    <rect x="28" y="28" width="6" height="6" fill="#F7B801"/>
    <rect x="36" y="28" width="6" height="6" fill="#F7B801"/>
    
    <rect x="20" y="36" width="6" height="6" fill="#F7B801"/>
    <rect x="28" y="36" width="6" height="6" fill="#F7B801"/>
    <rect x="36" y="36" width="6" height="6" fill="#F7B801"/>
    
    <!-- Flag/Report symbol -->
    <rect x="42" y="20" width="2" height="15" fill="#004E89"/>
    <polygon points="44,20 44,25 50,22.5" fill="#FF6B35"/>
  </g>
  
  <!-- Text -->
  <text x="65" y="25" font-family="Inter, sans-serif" font-size="16" font-weight="bold" fill="#FF6B35">
    JAIPUR
  </text>
  <text x="65" y="42" font-family="Inter, sans-serif" font-size="16" font-weight="bold" fill="#004E89">
    NOVEXA
  </text>
</svg>
